HIERARCHY
ROOT Hips
{
	OFFSET 0.000000 0.000000 0.000000
	CHANNELS 6 Xposition Yposition Zposition Zrotation Yrotation Xrotation 
	JOINT LHipJoint
	{
		OFFSET 0.000000 0.000000 0.000000
		CHANNELS 3 Zrotation Yrotation Xrotation
		JOINT LeftUpLeg
		{
			OFFSET 1.363060 -1.794630 0.839290
			CHANNELS 3 Zrotation Yrotation Xrotation
			JOINT LeftLeg
			{
				OFFSET 2.448110 -6.726130 0.000000
				CHANNELS 3 Zrotation Yrotation Xrotation
				JOINT LeftFoot
				{
					OFFSET 2.562200 -7.039590 0.000000
					CHANNELS 3 Zrotation Yrotation Xrotation
					JOINT LeftToeBase
					{
						OFFSET 0.157640 -0.433110 2.322550
						CHANNELS 3 Zrotation Yrotation Xrotation
						End Site
						{
							OFFSET 0.000000 0.000000 0.000000
						}
					}
				}
			}
		}
	}
	JOINT RHipJoint
	{
		OFFSET 0.000000 0.000000 0.000000
		CHANNELS 3 Zrotation Yrotation Xrotation
		JOINT RightUpLeg
		{
			OFFSET -1.305520 -1.794630 0.839290
			CHANNELS 3 Zrotation Yrotation Xrotation
			JOINT RightLeg
			{
				OFFSET -2.542530 -6.985550 0.000000
				CHANNELS 3 Zrotation Yrotation Xrotation
				JOINT RightFoot
				{
					OFFSET -2.568260 -7.056230 0.000000
					CHANNELS 3 Zrotation Yrotation Xrotation
					JOINT RightToeBase
					{
						OFFSET -0.164730 -0.452590 2.363150
						CHANNELS 3 Zrotation Yrotation Xrotation
						End Site
						{
							OFFSET 0.000000 0.000000 0.000000
						}
					}
				}
			}
		}
	}
	JOINT LowerBack
	{
		OFFSET 0.000000 0.000000 0.000000
		CHANNELS 3 Zrotation Yrotation Xrotation
		JOINT Spine
		{
			OFFSET 0.028270 2.035590 -0.193380
			CHANNELS 3 Zrotation Yrotation Xrotation
			JOINT Spine1
			{
				OFFSET 0.056720 2.048850 -0.042750
				CHANNELS 3 Zrotation Yrotation Xrotation
				JOINT Neck
				{
					OFFSET 0.000000 0.000000 0.000000
					CHANNELS 3 Zrotation Yrotation Xrotation
					JOINT Neck1
					{
						OFFSET -0.054170 1.746240 0.172020
						CHANNELS 3 Zrotation Yrotation Xrotation
						JOINT Head
						{
							OFFSET 0.104070 1.761360 -0.123970
							CHANNELS 3 Zrotation Yrotation Xrotation
							End Site
							{
								OFFSET 0.000000 0.000000 0.000000
							}
						}
					}
				}
				JOINT LeftShoulder
				{
					OFFSET 0.000000 0.000000 0.000000
					CHANNELS 3 Zrotation Yrotation Xrotation
					JOINT LeftArm
					{
						OFFSET 3.362410 1.200890 -0.311210
						CHANNELS 3 Zrotation Yrotation Xrotation
						JOINT LeftForeArm
						{
							OFFSET 4.983000 -0.000000 -0.000000
							CHANNELS 3 Zrotation Yrotation Xrotation
							JOINT LeftHand
							{
								OFFSET 3.483560 -0.000000 -0.000000
								CHANNELS 3 Zrotation Yrotation Xrotation
								JOINT LeftFingerBase
								{
									OFFSET 0.000000 0.000000 0.000000
									CHANNELS 3 Zrotation Yrotation Xrotation
									JOINT LeftHandIndex1
									{
										OFFSET 0.715260 -0.000000 -0.000000
										CHANNELS 3 Zrotation Yrotation Xrotation
										End Site
										{
											OFFSET 0.000000 0.000000 0.000000
										}
									}
								}
								JOINT LThumb
								{
									OFFSET 0.000000 0.000000 0.000000
									CHANNELS 3 Zrotation Yrotation Xrotation
									End Site
									{
										OFFSET 0.000000 0.000000 0.000000
									}
								}
							}
						}
					}
				}
				JOINT RightShoulder
				{
					OFFSET 0.000000 0.000000 0.000000
					CHANNELS 3 Zrotation Yrotation Xrotation
					JOINT RightArm
					{
						OFFSET -3.136600 1.374050 -0.404650
						CHANNELS 3 Zrotation Yrotation Xrotation
						JOINT RightForeArm
						{
							OFFSET -5.241900 -0.000000 -0.000000
							CHANNELS 3 Zrotation Yrotation Xrotation
							JOINT RightHand
							{
								OFFSET -3.444170 -0.000000 -0.000000
								CHANNELS 3 Zrotation Yrotation Xrotation
								JOINT RightFingerBase
								{
									OFFSET 0.000000 0.000000 0.000000
									CHANNELS 3 Zrotation Yrotation Xrotation
									JOINT RightHandIndex1
									{
										OFFSET -0.622530 -0.000000 -0.000000
										CHANNELS 3 Zrotation Yrotation Xrotation
										End Site
										{
											OFFSET 0.000000 0.000000 0.000000
										}
									}
								}
								JOINT RThumb
								{
									OFFSET 0.000000 0.000000 0.000000
									CHANNELS 3 Zrotation Yrotation Xrotation
									End Site
									{
										OFFSET 0.000000 0.000000 0.000000
									}
								}
							}
						}
					}
				}
			}
		}
	}
}
MOTION
Frames: 8
Frame Time: 0.008333
2.810616 16.411657 1.367453 -175.994730 -68.607220 -144.323664 -9.370246 3.034545 -1.987872 -31.708300 18.377231 -70.217605 -5.619530 4.508939 39.461318 2.571632 8.234072 -16.925255 -1.209200 0.000000 -38.055900 8.238902 1.249057 3.085758 9.048000 -2.682759 -67.084602 4.652254 -2.623530 30.224591 2.065058 10.796650 0.252715 1.391300 -0.000000 -71.202400 6.659968 -6.186573 0.948441 1.387471 -6.525273 -2.172286 -4.694313 -6.602314 3.251482 16.075054 -17.599053 -12.502831 1.005689 0.209680 -1.665692 0.000000 0.000000 0.000000 31.840137 8.170314 5.580163 34.402743 -35.450495 -128.173640 4.317336 -1.157658 -0.107853 15.228786 -6.835281 -1.032360 -0.489950 0.626925 -0.000000 0.000000 0.000000 0.000000 0.000000 0.000000 0.000000 1.881015 -15.950808 -2.911934 73.131914 12.841549 26.385068 -178.819554 61.807784 179.863535 -15.233480 8.072152 -1.194488 0.283108 -0.682298 0.000000 0.000000 0.000000 0.000000 0.000000 0.000000 0.000000 
2.823912 16.411637 1.364732 -176.521538 -68.351096 -143.754478 -9.348273 3.028542 -2.056530 -31.844050 18.241611 -70.100854 -5.605254 4.492523 39.416978 2.630376 8.536195 -16.925146 -1.238000 -0.000000 -37.872900 8.256418 1.306009 3.039154 8.881872 -2.794181 -67.244501 4.660872 -2.644494 30.213638 2.117166 11.102872 0.328818 1.462500 0.000000 -71.258300 6.596248 -6.174962 1.114029 1.370764 -6.507598 -2.161216 -4.672376 -6.588445 3.120820 15.881951 -17.655848 -12.261978 0.913509 0.196524 -1.597068 0.000000 0.000000 0.000000 31.445542 7.883740 5.158065 32.989856 -35.795999 -121.081972 3.889072 -3.700941 -0.108754 13.437682 -5.796572 -0.784447 -0.420299 0.641223 -0.000000 0.000000 0.000000 0.000000 0.000000 0.000000 0.000000 1.826332 -15.845116 -2.824995 73.289141 12.313169 26.115755 -178.831082 61.853262 179.862771 -15.266236 8.052904 -1.194739 0.284415 -0.684476 0.000000 0.000000 0.000000 0.000000 0.000000 0.000000 0.000000 
2.837536 16.410436 1.362331 -177.021692 -68.120276 -143.207017 -9.331181 3.024661 -2.113309 -31.958301 18.076414 -69.999295 -5.588959 4.479006 39.389851 2.690341 8.835047 -16.937569 -1.268099 -0.000000 -37.666400 8.270582 1.364006 2.997487 8.713998 -2.892959 -67.420039 4.664055 -2.666756 30.234461 2.161226 11.365207 0.386766 1.523500 -0.000000 -71.295100 6.576206 -6.157551 1.263019 1.354554 -6.488700 -2.153953 -4.675332 -6.573812 2.968715 15.662473 -17.717190 -11.960447 0.809162 0.181058 -1.510877 0.000000 0.000000 0.000000 31.162966 7.461027 4.665771 30.800960 -35.997479 -112.986984 3.411815 -6.906963 -0.109913 12.112475 -4.644831 -0.581192 -0.367845 0.653018 -0.000000 0.000000 0.000000 0.000000 0.000000 0.000000 0.000000 1.764109 -15.766862 -2.718843 73.457491 11.837885 25.904701 -178.854750 61.920233 179.862112 -15.294640 8.041865 -1.195882 0.286472 -0.687064 0.000000 0.000000 0.000000 0.000000 0.000000 0.000000 0.000000 
2.850781 16.408069 1.360378 -177.488342 -67.909923 -142.684146 -9.319598 3.024166 -2.156889 -32.059471 17.889068 -69.925454 -5.572824 4.469521 39.378987 2.749587 9.119580 -16.963722 -1.298900 -0.000001 -37.442600 8.279845 1.420869 2.964847 8.546889 -2.970010 -67.613874 4.662840 -2.689084 30.279744 2.197624 11.581985 0.429087 1.573900 0.000000 -71.313400 6.605329 -6.132420 1.390468 1.339236 -6.466927 -2.150510 -4.709794 -6.556683 2.803243 15.428971 -17.776820 -11.613855 0.696356 0.163985 -1.411734 0.000000 0.000000 0.000000 30.915236 6.963972 4.143545 28.146820 -35.960476 -104.916234 2.971585 -10.654204 -0.112178 11.251142 -3.543373 -0.428398 -0.328827 0.663989 0.000000 0.000000 0.000000 0.000000 0.000000 0.000000 0.000000 1.706665 -15.717701 -2.598712 73.622957 11.418716 25.750964 -178.890247 61.999592 179.861656 -15.311388 8.040703 -1.197623 0.289085 -0.689891 0.000000 0.000000 0.000000 0.000000 0.000000 0.000000 0.000000 
2.862699 16.404501 1.359024 -177.907751 -67.717371 -142.190864 -9.313721 3.027790 -2.187460 -32.155138 17.687972 -69.888804 -5.558848 4.464866 39.383499 2.806075 9.379122 -17.003903 -1.329700 -0.000000 -37.210600 8.283582 1.474770 2.944003 8.382065 -3.019528 -67.827949 4.658604 -2.710607 30.342080 2.226927 11.753698 0.458162 1.613900 -0.000000 -71.315300 6.682924 -6.098853 1.494507 1.324445 -6.441277 -2.150309 -4.779635 -6.535849 2.632854 15.198824 -17.831476 -11.240070 0.578906 0.146068 -1.304922 0.000000 0.000000 0.000000 30.653883 6.459912 3.618026 25.292709 -35.708489 -97.522113 2.612540 -14.832653 -0.115922 10.781736 -2.513971 -0.310870 -0.298595 0.673347 0.000000 0.000000 0.000000 0.000000 0.000000 0.000000 0.000000 1.672193 -15.696826 -2.469404 73.766105 11.058904 25.649944 -178.937508 62.080394 179.861486 -15.313271 8.046810 -1.199161 0.292280 -0.692759 0.000000 0.000000 0.000000 0.000000 0.000000 0.000000 0.000000 
2.872847 16.399747 1.358288 -178.276913 -67.539496 -141.727366 -9.313473 3.035952 -2.205966 -32.251593 17.480726 -69.897364 -5.548515 4.466100 39.404321 2.858064 9.605073 -17.058340 -1.360000 0.000000 -36.978600 8.281203 1.524640 2.935946 8.222237 -3.038009 -68.063734 4.652231 -2.730975 30.418001 2.249894 11.883069 0.475519 1.644000 0.000000 -71.303200 6.807136 -6.057218 1.575301 1.310528 -6.411677 -2.153469 -4.883340 -6.511207 2.461515 14.982038 -17.876689 -10.852931 0.459916 0.127905 -1.194521 0.000000 0.000000 0.000000 30.362148 5.988065 3.101055 22.361026 -35.300551 -91.012145 2.332792 -19.378841 -0.121089 10.623918 -1.499594 -0.209410 -0.274094 0.679202 -0.000000 0.000000 0.000000 0.000000 0.000000 0.000000 0.000000 1.665861 -15.696932 -2.333883 73.876143 10.754089 25.593748 -178.995374 62.152690 179.861621 -15.297761 8.059008 -1.200197 0.295982 -0.695646 0.000000 0.000000 0.000000 0.000000 0.000000 0.000000 0.000000 
2.880825 16.393796 1.358183 -178.592167 -67.375017 -141.293825 -9.318564 3.048916 -2.214010 -32.354386 17.274212 -69.955184 -5.542863 4.473848 39.442153 2.904040 9.790961 -17.125677 -1.389000 -0.000000 -36.756799 8.272780 1.569879 2.940648 8.068702 -3.026085 -68.321971 4.644687 -2.750249 30.505246 2.267405 11.974720 0.481974 1.665200 0.000000 -71.280000 6.973195 -6.008286 1.634476 1.298181 -6.378229 -2.159829 -5.015249 -6.482859 2.292661 14.785234 -17.911695 -10.465898 0.341508 0.109986 -1.084512 0.000000 0.000000 0.000000 30.032984 5.573182 2.600590 19.414506 -34.799844 -85.408423 2.109473 -24.231217 -0.127201 10.694393 -0.461206 -0.110921 -0.253108 0.680676 -0.000000 0.000000 0.000000 0.000000 0.000000 0.000000 0.000000 1.690412 -15.713159 -2.194262 73.943492 10.500019 25.575119 -179.062745 62.210305 179.862048 -15.266709 8.073366 -1.200434 0.300246 -0.698479 0.000000 0.000000 0.000000 0.000000 0.000000 0.000000 0.000000 
2.886609 16.386633 1.358616 -178.858446 -67.223735 -140.886015 -9.328380 3.066555 -2.213420 -32.467290 17.072554 -70.064047 -5.542268 4.488583 39.499222 2.942930 9.932569 -17.205039 -1.416500 0.000001 -36.551100 8.258651 1.610287 2.957030 7.923193 -2.986790 -68.604015 4.636611 -2.769064 30.604870 2.280424 12.034647 0.477240 1.678400 -0.000001 -71.248500 7.175044 -5.952353 1.674576 1.287990 -6.340566 -2.170738 -5.168265 -6.450595 2.122671 14.608250 -17.928884 -10.085239 0.225090 0.092565 -0.976712 0.000000 0.000000 0.000000 29.682426 5.195688 2.121825 16.427424 -34.219471 -80.568242 1.912270 -29.360891 -0.133704 10.925410 0.636002 -0.005405 -0.234562 0.677417 -0.000000 0.000000 0.000000 0.000000 0.000000 0.000000 0.000000 1.735982 -15.731761 -2.050812 73.969964 10.275922 25.578660 -179.136560 62.245831 179.862703 -15.221012 8.088996 -1.199668 0.304873 -0.701343 0.000000 0.000000 0.000000 0.000000 0.000000 0.000000 0.000000 
